<?xml version="1.0" encoding="utf-8"?>
<!-- Generator: Adobe Illustrator 22.0.0, SVG Export Plug-In . SVG Version: 6.00 Build 0)  -->
<svg version="1.1" id="Layer_1" xmlns="http://www.w3.org/2000/svg" xmlns:xlink="http://www.w3.org/1999/xlink" x="0px" y="0px"
	 viewBox="0 0 381 49.4" style="enable-background:new 0 0 381 49.4;" xml:space="preserve">
<style type="text/css">
	.st0{fill:#0E334A;}
	.st1{fill:#174E70;}
	.st2{fill:#1F6694;}
	.st3{fill:#4E84A7;}
	.st4{fill:#78A2BD;}
	.st5{fill:#A5C1D3;}
	.st6{fill:#D1DFE9;}
	.st7{fill:#3B97D2;}
	.st8{fill:url(#SVGID_1_);}
</style>
<g>
	<g>
		<path class="st0" d="M263.1,32c0,0-1.5-15.2,0-16c1.2-0.6,16.8,0,16.8,0L263.1,32z"/>
		<path class="st1" d="M290.5,15c0,0-7.8-8.7-11.2-10.1c-0.9-0.3-2.9-0.4-3.7,0c-3.3,1.4-9.8,10.1-9.8,10.1H290.5z"/>
		<path class="st2" d="M296.1,4.9c-1.4-1.4-14.5,0-14.5,0l14.5,13.7C296.1,18.6,296.7,5.6,296.1,4.9z"/>
		<path class="st3" d="M297.1,29.6V7.7c0,0,11.5,8,11.4,10.1C308.6,18.7,297.1,29.6,297.1,29.6z"/>
		<path class="st4" d="M307.8,20.4l-15.5,15c0,0,14.5,1.6,15.5,0C308.6,34,307.8,20.4,307.8,20.4z"/>
		<path class="st5" d="M281.8,36.8h24.6c0,0-9.2,11.1-12.3,11.1C293.2,47.9,281.8,36.8,281.8,36.8z"/>
		<path class="st6" d="M276.3,33.1c0,0-3.5,10.7-0.9,13.1c2.7,2.6,15.2,0,15.2,0L276.3,33.1z"/>
	</g>
	<g>
		<g>
			<g>
				<path class="st7" d="M157.1,3.9L171.3,21l14.3-17.1h7.5v43.4h-8.4V16.8h-0.2l-12.5,15.3h-1.2l-13.6-15.3"/>
			</g>
			<path class="st7" d="M157.1,3.9v27c0,5.9-1.6,10.3-4.7,13.2c-3.1,2.9-7.8,4.4-14,4.4c-6.3,0-11.1-1.5-14.2-4.4s-4.7-7.3-4.7-13.2
				v-27h9.2v25.5c0,3.6,0.8,6.3,2.4,8.1c1.6,1.8,3.9,2.7,7.1,2.7c3.2,0,5.6-0.9,7.2-2.7c1.6-1.8,2.4-4.5,2.4-8.1V3.9H157.1z"/>
		</g>
		<path class="st7" d="M90.2,47.3V3.9h26.9v7.8H99.5v8.9h17.7v7.9H99.5v10.9h17.7v7.9H90.2z"/>
		<path class="st7" d="M49.8,47.3V3.9h11.8c4.7,0,8.3,0.3,11,1c2.7,0.7,5,1.7,7.1,3.3c2.6,2,4.6,4.4,6,7.4c1.4,3,2,6.4,2,10.1
			c0,3.9-0.7,7.3-2.1,10.2c-1.4,3-3.4,5.4-6.1,7.4c-2,1.4-4.2,2.4-6.6,3.1c-2.4,0.6-6,0.9-10.6,0.9h-3.3H49.8z M59.1,39.4h5.2
			c4.9,0,8.4-1.1,10.6-3.3c2.2-2.2,3.3-5.7,3.3-10.5c0-4.8-1.1-8.3-3.3-10.5c-2.2-2.2-5.8-3.3-10.6-3.3h-5.2V39.4z"/>
		<path class="st7" d="M47.5,25.7c0,3.1-0.6,6-1.7,8.8c-1.2,2.8-2.8,5.2-5,7.3c-2.3,2.2-4.8,3.8-7.6,4.9c-2.8,1.1-5.7,1.7-8.8,1.7
			c-2.6,0-5.2-0.4-7.8-1.3c-2.5-0.9-4.9-2.2-7-3.9c-2.7-2.2-4.8-4.8-6.3-7.8s-2.2-6.3-2.2-9.7c0-3.1,0.6-6,1.7-8.8
			c1.1-2.7,2.8-5.2,5-7.3c2.2-2.1,4.7-3.8,7.6-4.9c2.9-1.2,5.8-1.7,8.9-1.7c3,0,6,0.6,8.8,1.7c2.9,1.2,5.4,2.8,7.6,4.9
			c2.2,2.1,3.9,4.6,5,7.3C46.9,19.6,47.5,22.6,47.5,25.7z M24.4,40.2c3.9,0,7.2-1.4,9.7-4.1c2.6-2.8,3.8-6.2,3.8-10.4
			c0-4.1-1.3-7.6-3.9-10.4c-2.6-2.8-5.8-4.2-9.7-4.2c-3.9,0-7.2,1.4-9.8,4.2c-2.6,2.8-3.9,6.3-3.9,10.4c0,4.2,1.3,7.6,3.8,10.4
			C17.1,38.8,20.4,40.2,24.4,40.2z"/>
		<linearGradient id="SVGID_1_" gradientUnits="userSpaceOnUse" x1="157.0505" y1="12.7983" x2="161.4282" y2="12.7983">
			<stop  offset="0" style="stop-color:#185273"/>
			<stop  offset="1" style="stop-color:#3B97D2;stop-opacity:0"/>
		</linearGradient>
		<polygon class="st8" points="161.4,21.7 157.1,16.8 157.1,3.9 161.4,9.1 		"/>
		<g>
			<path class="st7" d="M195.4,6.1c0-1,0.2-1.9,0.7-2.8s1.2-1.6,2.1-2.1c0.9-0.5,1.8-0.8,2.8-0.8c1,0,2,0.3,2.9,0.8
				c0.9,0.5,1.5,1.2,2,2.1c0.5,0.9,0.7,1.8,0.7,2.8c0,1-0.3,2-0.8,2.9c-0.5,0.9-1.2,1.6-2.1,2c-0.9,0.5-1.8,0.7-2.8,0.7
				c-1,0-2-0.3-2.8-0.8c-0.9-0.5-1.6-1.2-2.1-2.1S195.4,7.1,195.4,6.1z M196.5,6.1c0,0.8,0.2,1.6,0.6,2.3c0.4,0.7,1,1.3,1.7,1.7
				c0.7,0.4,1.5,0.6,2.3,0.6c0.8,0,1.6-0.2,2.3-0.6s1.3-1,1.7-1.7c0.4-0.7,0.6-1.5,0.6-2.3c0-0.8-0.2-1.6-0.6-2.3s-1-1.3-1.7-1.7
				c-0.7-0.4-1.5-0.6-2.3-0.6c-0.8,0-1.6,0.2-2.3,0.6s-1.3,1-1.7,1.7C196.7,4.5,196.5,5.3,196.5,6.1z M201.6,3.1
				c0.6,0,1,0.2,1.3,0.5c0.3,0.3,0.5,0.7,0.5,1.2c0,0.5-0.2,0.9-0.5,1.2c-0.3,0.3-0.7,0.5-1.2,0.5v0c0.2,0.1,0.4,0.2,0.6,0.4
				s0.4,0.5,0.7,1.1l0.7,1.2h-1.4l-0.3-0.5c-0.2-0.5-0.5-0.9-0.7-1.2c-0.2-0.3-0.4-0.5-0.6-0.6c-0.2-0.1-0.4-0.2-0.7-0.2h-0.5v2.5
				h-1.1v-6H201.6z M201.2,5.7c0.4,0,0.6-0.1,0.8-0.2s0.3-0.4,0.3-0.6c0-0.3-0.1-0.5-0.3-0.6c-0.2-0.1-0.5-0.2-0.8-0.2h-1.4v1.7
				H201.2z"/>
		</g>
	</g>
	<path class="st2" d="M351.2,48V4.7h26.9v7.8h-17.7v8.9h17.7v7.9h-17.7v10.9h17.7V48H351.2z"/>
	<path class="st2" d="M310.8,48V4.7h11.8c4.7,0,8.3,0.3,11,1c2.7,0.7,5,1.7,7.1,3.3c2.6,2,4.6,4.4,6,7.4c1.4,3,2,6.4,2,10.1
		c0,3.9-0.7,7.3-2.1,10.2c-1.4,3-3.4,5.4-6.1,7.4c-2,1.4-4.2,2.4-6.6,3.1c-2.4,0.6-6,0.9-10.6,0.9h-3.3H310.8z M320.1,40.2h5.2
		c4.9,0,8.4-1.1,10.6-3.3c2.2-2.2,3.3-5.7,3.3-10.5c0-4.8-1.1-8.3-3.3-10.5c-2.2-2.2-5.8-3.3-10.6-3.3h-5.2V40.2z"/>
	<g>
		<path class="st2" d="M255.7,36.3c-2.5,2.6-5.6,4-9.4,4c-3.9,0-7-1.3-9.5-3.9c-2.4-2.6-3.7-6-3.7-10c0-4,1.2-7.3,3.7-10
			c2.5-2.7,5.6-4,9.4-4c3.7,0,6.8,1.3,9.3,4c0.1,0.1,0.2,0.2,0.3,0.3l6-6c-2.1-2-4.4-3.5-7.1-4.6c-2.7-1.1-5.6-1.7-8.5-1.7
			c-2.9,0-5.8,0.6-8.5,1.7c-2.8,1.1-5.2,2.7-7.3,4.7c-2.1,2.1-3.7,4.4-4.8,7c-1.1,2.6-1.7,5.4-1.7,8.4c0,3.3,0.7,6.5,2.1,9.4
			c1.4,2.9,3.4,5.4,6,7.5c2,1.6,4.3,2.9,6.7,3.7c2.4,0.9,4.9,1.3,7.5,1.3c2.9,0,5.7-0.6,8.4-1.7c2.6-1.1,5-2.6,7.1-4.6l-6-6
			C255.8,36.1,255.8,36.2,255.7,36.3z"/>
	</g>
</g>
</svg>
