<?xml version="1.0" encoding="UTF-8" standalone="no"?>
<!-- Generator: Adobe Illustrator 22.0.0, SVG Export Plug-In . SVG Version: 6.00 Build 0)  -->

<svg
   xmlns:dc="http://purl.org/dc/elements/1.1/"
   xmlns:cc="http://creativecommons.org/ns#"
   xmlns:rdf="http://www.w3.org/1999/02/22-rdf-syntax-ns#"
   xmlns:svg="http://www.w3.org/2000/svg"
   xmlns="http://www.w3.org/2000/svg"
   xmlns:xlink="http://www.w3.org/1999/xlink"
   xmlns:sodipodi="http://sodipodi.sourceforge.net/DTD/sodipodi-0.dtd"
   xmlns:inkscape="http://www.inkscape.org/namespaces/inkscape"
   version="1.1"
   id="Layer_1"
   x="0px"
   y="0px"
   viewBox="0 0 381 49.4"
   style="enable-background:new 0 0 381 49.4;"
   xml:space="preserve"
   sodipodi:docname="logo_green.svg"
   inkscape:version="0.92.2 (unknown)"><metadata
     id="metadata3859"><rdf:RDF><cc:Work
         rdf:about=""><dc:format>image/svg+xml</dc:format><dc:type
           rdf:resource="http://purl.org/dc/dcmitype/StillImage" /><dc:title></dc:title></cc:Work></rdf:RDF></metadata><defs
     id="defs3857"><linearGradient
       id="SVGID_1_"
       gradientUnits="userSpaceOnUse"
       x1="157.05051"
       y1="12.7983"
       x2="161.42821"
       y2="12.7983"><stop
         offset="0"
         style="stop-color:#185273"
         id="stop3831" /><stop
         offset="1"
         style="stop-color:#3B97D2;stop-opacity:0"
         id="stop3833" /></linearGradient><linearGradient
       inkscape:collect="always"
       xlink:href="#SVGID_1_"
       id="linearGradient4720"
       x1="157.10001"
       y1="12.8"
       x2="161.39999"
       y2="12.8"
       gradientUnits="userSpaceOnUse" /></defs><sodipodi:namedview
     pagecolor="#ffffff"
     bordercolor="#666666"
     borderopacity="1"
     objecttolerance="10"
     gridtolerance="10"
     guidetolerance="10"
     inkscape:pageopacity="0"
     inkscape:pageshadow="2"
     inkscape:window-width="1920"
     inkscape:window-height="1051"
     id="namedview3855"
     showgrid="false"
     inkscape:zoom="4.5144357"
     inkscape:cx="150.70987"
     inkscape:cy="6.9790705"
     inkscape:window-x="1440"
     inkscape:window-y="0"
     inkscape:window-maximized="1"
     inkscape:current-layer="Layer_1" /><style
     type="text/css"
     id="style3799">
	.st0{fill:#0E334A;}
	.st1{fill:#174E70;}
	.st2{fill:#1F6694;}
	.st3{fill:#4E84A7;}
	.st4{fill:#78A2BD;}
	.st5{fill:#A5C1D3;}
	.st6{fill:#D1DFE9;}
	.st7{fill:#3B97D2;}
	.st8{fill:url(#SVGID_1_);}
</style><g
     id="g3815"><path
       style="fill:#165016"
       inkscape:connector-curvature="0"
       id="path3801"
       d="m 263.1,32 c 0,0 -1.5,-15.2 0,-16 1.2,-0.6 16.8,0 16.8,0 z"
       class="st0" /><path
       style="fill:#217821"
       inkscape:connector-curvature="0"
       id="path3803"
       d="m 290.5,15 c 0,0 -7.8,-8.7 -11.2,-10.1 -0.9,-0.3 -2.9,-0.4 -3.7,0 -3.3,1.4 -9.8,10.1 -9.8,10.1 z"
       class="st1" /><path
       style="fill:#2ca02c"
       inkscape:connector-curvature="0"
       id="path3805"
       d="m 296.1,4.9 c -1.4,-1.4 -14.5,0 -14.5,0 l 14.5,13.7 c 0,0 0.6,-13 0,-13.7 z"
       class="st2" /><path
       style="fill:#37c837"
       inkscape:connector-curvature="0"
       id="path3807"
       d="M 297.1,29.6 V 7.7 c 0,0 11.5,8 11.4,10.1 0.1,0.9 -11.4,11.8 -11.4,11.8 z"
       class="st3" /><path
       style="fill:#5fd35f"
       inkscape:connector-curvature="0"
       id="path3809"
       d="m 307.8,20.4 -15.5,15 c 0,0 14.5,1.6 15.5,0 0.8,-1.4 0,-15 0,-15 z"
       class="st4" /><path
       style="fill:#87de87"
       inkscape:connector-curvature="0"
       id="path3811"
       d="m 281.8,36.8 h 24.6 c 0,0 -9.2,11.1 -12.3,11.1 -0.9,0 -12.3,-11.1 -12.3,-11.1 z"
       class="st5" /><path
       style="fill:#afe9af"
       inkscape:connector-curvature="0"
       id="path3813"
       d="m 276.3,33.1 c 0,0 -3.5,10.7 -0.9,13.1 2.7,2.6 15.2,0 15.2,0 z"
       class="st6" /></g><path
     class="st7"
     d="M 157.1,3.9 171.3,21 185.6,3.9 h 7.5 v 43.4 h -8.4 V 16.8 h -0.2 L 172,32.1 h -1.2 L 157.2,16.8"
     id="path3817"
     inkscape:connector-curvature="0"
     style="fill:#37c837;image-rendering:auto;opacity:1" /><path
     style="fill:#37c837"
     inkscape:connector-curvature="0"
     id="path3821"
     d="m 157.1,3.9 v 27 c 0,5.9 -1.6,10.3 -4.7,13.2 -3.1,2.9 -7.8,4.4 -14,4.4 -6.3,0 -11.1,-1.5 -14.2,-4.4 -3.1,-2.9 -4.7,-7.3 -4.7,-13.2 v -27 h 9.2 v 25.5 c 0,3.6 0.8,6.3 2.4,8.1 1.6,1.8 3.9,2.7 7.1,2.7 3.2,0 5.6,-0.9 7.2,-2.7 1.6,-1.8 2.4,-4.5 2.4,-8.1 V 3.9 Z"
     class="st7" /><path
     class="st7"
     d="M 90.2,47.3 V 3.9 h 26.9 v 7.8 H 99.5 v 8.9 h 17.7 v 7.9 H 99.5 v 10.9 h 17.7 v 7.9 z"
     id="path3825"
     inkscape:connector-curvature="0"
     style="fill:#37c837" /><path
     class="st7"
     d="M 49.8,47.3 V 3.9 h 11.8 c 4.7,0 8.3,0.3 11,1 2.7,0.7 5,1.7 7.1,3.3 2.6,2 4.6,4.4 6,7.4 1.4,3 2,6.4 2,10.1 0,3.9 -0.7,7.3 -2.1,10.2 -1.4,3 -3.4,5.4 -6.1,7.4 -2,1.4 -4.2,2.4 -6.6,3.1 -2.4,0.6 -6,0.9 -10.6,0.9 H 59 Z m 9.3,-7.9 h 5.2 c 4.9,0 8.4,-1.1 10.6,-3.3 2.2,-2.2 3.3,-5.7 3.3,-10.5 0,-4.8 -1.1,-8.3 -3.3,-10.5 -2.2,-2.2 -5.8,-3.3 -10.6,-3.3 h -5.2 z"
     id="path3827"
     inkscape:connector-curvature="0"
     style="fill:#37c837" /><path
     class="st7"
     d="m 47.5,25.7 c 0,3.1 -0.6,6 -1.7,8.8 -1.2,2.8 -2.8,5.2 -5,7.3 -2.3,2.2 -4.8,3.8 -7.6,4.9 -2.8,1.1 -5.7,1.7 -8.8,1.7 -2.6,0 -5.2,-0.4 -7.8,-1.3 -2.5,-0.9 -4.9,-2.2 -7,-3.9 C 6.9,41 4.8,38.4 3.3,35.4 1.8,32.4 1.1,29.1 1.1,25.7 c 0,-3.1 0.6,-6 1.7,-8.8 1.1,-2.7 2.8,-5.2 5,-7.3 C 10,7.5 12.5,5.8 15.4,4.7 18.3,3.5 21.2,3 24.3,3 c 3,0 6,0.6 8.8,1.7 2.9,1.2 5.4,2.8 7.6,4.9 2.2,2.1 3.9,4.6 5,7.3 1.2,2.7 1.8,5.7 1.8,8.8 z M 24.4,40.2 c 3.9,0 7.2,-1.4 9.7,-4.1 2.6,-2.8 3.8,-6.2 3.8,-10.4 0,-4.1 -1.3,-7.6 -3.9,-10.4 -2.6,-2.8 -5.8,-4.2 -9.7,-4.2 -3.9,0 -7.2,1.4 -9.8,4.2 -2.6,2.8 -3.9,6.3 -3.9,10.4 0,4.2 1.3,7.6 3.8,10.4 2.7,2.7 6,4.1 10,4.1 z"
     id="path3829"
     inkscape:connector-curvature="0"
     style="fill:#37c837" /><polygon
     class="st8"
     points="161.4,21.7 157.1,16.8 157.1,3.9 161.4,9.1 "
     id="polygon3836"
     style="fill:url(#linearGradient4720);fill-opacity:1;fill-rule:nonzero;opacity:0.413" /><g
     id="g3840"><path
       class="st7"
       d="m 195.4,6.1 c 0,-1 0.2,-1.9 0.7,-2.8 0.5,-0.9 1.2,-1.6 2.1,-2.1 0.9,-0.5 1.8,-0.8 2.8,-0.8 1,0 2,0.3 2.9,0.8 0.9,0.5 1.5,1.2 2,2.1 0.5,0.9 0.7,1.8 0.7,2.8 0,1 -0.3,2 -0.8,2.9 -0.5,0.9 -1.2,1.6 -2.1,2 -0.9,0.5 -1.8,0.7 -2.8,0.7 -1,0 -2,-0.3 -2.8,-0.8 -0.9,-0.5 -1.6,-1.2 -2.1,-2.1 -0.5,-0.9 -0.6,-1.7 -0.6,-2.7 z m 1.1,0 c 0,0.8 0.2,1.6 0.6,2.3 0.4,0.7 1,1.3 1.7,1.7 0.7,0.4 1.5,0.6 2.3,0.6 0.8,0 1.6,-0.2 2.3,-0.6 0.7,-0.4 1.3,-1 1.7,-1.7 0.4,-0.7 0.6,-1.5 0.6,-2.3 0,-0.8 -0.2,-1.6 -0.6,-2.3 -0.4,-0.7 -1,-1.3 -1.7,-1.7 -0.7,-0.4 -1.5,-0.6 -2.3,-0.6 -0.8,0 -1.6,0.2 -2.3,0.6 -0.7,0.4 -1.3,1 -1.7,1.7 -0.4,0.7 -0.6,1.5 -0.6,2.3 z m 5.1,-3 c 0.6,0 1,0.2 1.3,0.5 0.3,0.3 0.5,0.7 0.5,1.2 0,0.5 -0.2,0.9 -0.5,1.2 -0.3,0.3 -0.7,0.5 -1.2,0.5 v 0 c 0.2,0.1 0.4,0.2 0.6,0.4 0.2,0.2 0.4,0.5 0.7,1.1 l 0.7,1.2 h -1.4 L 202,8.7 C 201.8,8.2 201.5,7.8 201.3,7.5 201.1,7.2 200.9,7 200.7,6.9 200.5,6.8 200.3,6.7 200,6.7 h -0.5 v 2.5 h -1.1 v -6 h 3.2 z m -0.4,2.6 c 0.4,0 0.6,-0.1 0.8,-0.2 0.2,-0.1 0.3,-0.4 0.3,-0.6 0,-0.3 -0.1,-0.5 -0.3,-0.6 -0.2,-0.1 -0.5,-0.2 -0.8,-0.2 h -1.4 v 1.7 h 1.4 z"
       id="path3838"
       inkscape:connector-curvature="0"
       style="fill:#37c837" /></g><path
     style="fill:#217821"
     inkscape:connector-curvature="0"
     id="path3844"
     d="M 351.2,48 V 4.7 h 26.9 v 7.8 h -17.7 v 8.9 h 17.7 v 7.9 h -17.7 v 10.9 h 17.7 V 48 Z"
     class="st2" /><path
     style="fill:#217821"
     inkscape:connector-curvature="0"
     id="path3846"
     d="M 310.8,48 V 4.7 h 11.8 c 4.7,0 8.3,0.3 11,1 2.7,0.7 5,1.7 7.1,3.3 2.6,2 4.6,4.4 6,7.4 1.4,3 2,6.4 2,10.1 0,3.9 -0.7,7.3 -2.1,10.2 -1.4,3 -3.4,5.4 -6.1,7.4 -2,1.4 -4.2,2.4 -6.6,3.1 -2.4,0.6 -6,0.9 -10.6,0.9 h -3.3 -9.2 z m 9.3,-7.8 h 5.2 c 4.9,0 8.4,-1.1 10.6,-3.3 2.2,-2.2 3.3,-5.7 3.3,-10.5 0,-4.8 -1.1,-8.3 -3.3,-10.5 -2.2,-2.2 -5.8,-3.3 -10.6,-3.3 h -5.2 z"
     class="st2" /><g
     id="g3850"><path
       style="fill:#217821"
       inkscape:connector-curvature="0"
       id="path3848"
       d="m 255.7,36.3 c -2.5,2.6 -5.6,4 -9.4,4 -3.9,0 -7,-1.3 -9.5,-3.9 -2.4,-2.6 -3.7,-6 -3.7,-10 0,-4 1.2,-7.3 3.7,-10 2.5,-2.7 5.6,-4 9.4,-4 3.7,0 6.8,1.3 9.3,4 0.1,0.1 0.2,0.2 0.3,0.3 l 6,-6 c -2.1,-2 -4.4,-3.5 -7.1,-4.6 -2.7,-1.1 -5.6,-1.7 -8.5,-1.7 -2.9,0 -5.8,0.6 -8.5,1.7 -2.8,1.1 -5.2,2.7 -7.3,4.7 -2.1,2.1 -3.7,4.4 -4.8,7 -1.1,2.6 -1.7,5.4 -1.7,8.4 0,3.3 0.7,6.5 2.1,9.4 1.4,2.9 3.4,5.4 6,7.5 2,1.6 4.3,2.9 6.7,3.7 2.4,0.9 4.9,1.3 7.5,1.3 2.9,0 5.7,-0.6 8.4,-1.7 2.6,-1.1 5,-2.6 7.1,-4.6 l -6,-6 c 0.1,0.3 0.1,0.4 0,0.5 z"
       class="st2" /></g></svg>