<?xml version="1.0" encoding="utf-8"?>
<!-- Generator: Adobe Illustrator 22.0.0, SVG Export Plug-In . SVG Version: 6.00 Build 0)  -->
<svg version="1.1" id="Layer_1" xmlns="http://www.w3.org/2000/svg" xmlns:xlink="http://www.w3.org/1999/xlink" x="0px" y="0px"
	 viewBox="0 0 154.6 150.5" style="enable-background:new 0 0 154.6 150.5;" xml:space="preserve">
<style type="text/css">
	.st0{fill:#0F344A;}
	.st1{fill:#194E70;}
	.st2{fill:#216795;}
	.st3{fill:#4E85A9;}
	.st4{fill:#79A3BE;}
	.st5{fill:#A6C2D4;}
	.st6{fill:#D3E0EA;}
</style>
<g>
	<path class="st0" d="M5.8,94.9c0,0-4.8-50,0-52.5c3.8-2,53.6,0,53.6,0L5.8,94.9z"/>
	<path class="st1" d="M93.1,39.1c0,0-25-28.7-35.8-33.2c-2.7-1.1-9.1-1.2-11.8,0C35,10.4,14.4,39.1,14.4,39.1H93.1z"/>
	<path class="st2" d="M110.9,5.9c-4.5-4.6-46.1,0-46.1,0l46.1,45C110.9,50.9,113,8.1,110.9,5.9z"/>
	<path class="st3" d="M114.3,86.9V15.1c0,0,36.5,26.3,36.5,33.2C150.8,51,114.3,86.9,114.3,86.9z"/>
	<path class="st4" d="M148.2,56.7L98.9,106c0,0,46.3,5.3,49.3,0C150.8,101.6,148.2,56.7,148.2,56.7z"/>
	<path class="st5" d="M65.4,110.9h78.3c0,0-29.4,36.5-39.1,36.5C101.7,147.3,65.4,110.9,65.4,110.9z"/>
	<path class="st6" d="M47.9,98.5c0,0-11.2,35.1-3,43.2c8.5,8.5,48.3,0,48.3,0L47.9,98.5z"/>
</g>
</svg>
