<?xml version="1.0" encoding="utf-8"?>
<!-- Generator: Adobe Illustrator 22.0.0, SVG Export Plug-In . SVG Version: 6.00 Build 0)  -->
<svg version="1.1" id="Layer_1" xmlns="http://www.w3.org/2000/svg" xmlns:xlink="http://www.w3.org/1999/xlink" x="0px" y="0px"
	 viewBox="0 0 400 100" style="enable-background:new 0 0 400 100;" xml:space="preserve">
<style type="text/css">
	.st0{fill:#0E334A;}
	.st1{fill:#174E70;}
	.st2{fill:#1F6694;}
	.st3{fill:#4E84A7;}
	.st4{fill:#78A2BD;}
	.st5{fill:#A5C1D3;}
	.st6{fill:#D1DFE9;}
	.st7{fill:#3B97D2;}
	.st8{fill:url(#SVGID_1_);}
</style>
<g>
	<path class="st0" d="M274.9,59.2c0,0-1.5-15.2,0-16c1.2-0.6,16.8,0,16.8,0L274.9,59.2z"/>
	<path class="st1" d="M302.3,42.3c0,0-7.8-8.7-11.2-10.1c-0.9-0.3-2.9-0.4-3.7,0c-3.3,1.4-9.8,10.1-9.8,10.1H302.3z"/>
	<path class="st2" d="M307.9,32.2c-1.4-1.4-14.5,0-14.5,0l14.5,13.7C307.9,45.9,308.5,32.8,307.9,32.2z"/>
	<path class="st3" d="M309,56.8V35c0,0,11.5,8,11.4,10.1C320.4,45.9,309,56.8,309,56.8z"/>
	<path class="st4" d="M319.6,47.6l-15.5,15c0,0,14.5,1.6,15.5,0C320.4,61.3,319.6,47.6,319.6,47.6z"/>
	<path class="st5" d="M293.6,64.1h24.6c0,0-9.2,11.1-12.3,11.1C305,75.2,293.6,64.1,293.6,64.1z"/>
	<path class="st6" d="M288.1,60.3c0,0-3.5,10.7-0.9,13.1c2.7,2.6,15.2,0,15.2,0L288.1,60.3z"/>
</g>
<g>
	<g>
		<g>
			<path class="st7" d="M168.9,31.1l14.3,17.1l14.3-17.1h7.5v43.4h-8.4V44h-0.2l-12.5,15.3h-1.2L168.9,44"/>
		</g>
		<path class="st7" d="M168.9,31.1v27c0,5.9-1.6,10.3-4.7,13.2c-3.1,2.9-7.8,4.4-14,4.4c-6.3,0-11.1-1.5-14.2-4.4
			c-3.1-2.9-4.7-7.3-4.7-13.2v-27h9.2v25.5c0,3.6,0.8,6.3,2.4,8.1c1.6,1.8,3.9,2.7,7.1,2.7c3.2,0,5.6-0.9,7.2-2.7
			c1.6-1.8,2.4-4.5,2.4-8.1V31.1H168.9z"/>
	</g>
	<path class="st7" d="M102.1,74.5V31.1H129V39h-17.7v8.9H129v7.9h-17.7v10.9H129v7.9H102.1z"/>
	<path class="st7" d="M61.6,74.5V31.1h11.8c4.7,0,8.3,0.3,11,1c2.7,0.7,5,1.7,7.1,3.3c2.6,2,4.6,4.4,6,7.4c1.4,3,2,6.4,2,10.1
		c0,3.9-0.7,7.3-2.1,10.2c-1.4,3-3.4,5.4-6.1,7.4c-2,1.4-4.2,2.4-6.6,3.1c-2.4,0.6-6,0.9-10.6,0.9h-3.3H61.6z M70.9,66.7h5.2
		c4.9,0,8.4-1.1,10.6-3.3c2.2-2.2,3.3-5.7,3.3-10.5c0-4.8-1.1-8.3-3.3-10.5c-2.2-2.2-5.8-3.3-10.6-3.3h-5.2V66.7z"/>
	<path class="st7" d="M59.3,52.9c0,3.1-0.6,6-1.7,8.8c-1.2,2.8-2.8,5.2-5,7.3c-2.3,2.2-4.8,3.8-7.6,4.9c-2.8,1.1-5.7,1.7-8.8,1.7
		c-2.6,0-5.2-0.4-7.8-1.3c-2.5-0.9-4.9-2.2-7-3.9c-2.7-2.2-4.8-4.8-6.3-7.8c-1.5-3-2.2-6.3-2.2-9.7c0-3.1,0.6-6,1.7-8.8
		c1.1-2.7,2.8-5.2,5-7.3c2.2-2.1,4.7-3.8,7.6-4.9c2.9-1.2,5.8-1.7,8.9-1.7c3,0,6,0.6,8.8,1.7c2.9,1.2,5.4,2.8,7.6,4.9
		c2.2,2.1,3.9,4.6,5,7.3C58.7,46.9,59.3,49.8,59.3,52.9z M36.2,67.4c3.9,0,7.2-1.4,9.7-4.1c2.6-2.8,3.8-6.2,3.8-10.4
		c0-4.1-1.3-7.6-3.9-10.4c-2.6-2.8-5.8-4.2-9.7-4.2c-3.9,0-7.2,1.4-9.8,4.2c-2.6,2.8-3.9,6.3-3.9,10.4c0,4.2,1.3,7.6,3.8,10.4
		C28.9,66,32.2,67.4,36.2,67.4z"/>
	<linearGradient id="SVGID_1_" gradientUnits="userSpaceOnUse" x1="168.8687" y1="40.0407" x2="173.2464" y2="40.0407">
		<stop  offset="0" style="stop-color:#185273"/>
		<stop  offset="1" style="stop-color:#3B97D2;stop-opacity:0"/>
	</linearGradient>
	<polygon class="st8" points="173.2,49 168.9,44 168.9,31.1 173.2,36.4 	"/>
	<g>
		<path class="st7" d="M207.3,33.3c0-1,0.2-1.9,0.7-2.8s1.2-1.6,2.1-2.1c0.9-0.5,1.8-0.8,2.8-0.8c1,0,2,0.3,2.9,0.8
			c0.9,0.5,1.5,1.2,2,2.1c0.5,0.9,0.7,1.8,0.7,2.8c0,1-0.3,2-0.8,2.9c-0.5,0.9-1.2,1.6-2.1,2c-0.9,0.5-1.8,0.7-2.8,0.7
			c-1,0-2-0.3-2.8-0.8c-0.9-0.5-1.6-1.2-2.1-2.1C207.5,35.3,207.3,34.3,207.3,33.3z M208.3,33.3c0,0.8,0.2,1.6,0.6,2.3
			c0.4,0.7,1,1.3,1.7,1.7c0.7,0.4,1.5,0.6,2.3,0.6c0.8,0,1.6-0.2,2.3-0.6c0.7-0.4,1.3-1,1.7-1.7s0.6-1.5,0.6-2.3
			c0-0.8-0.2-1.6-0.6-2.3c-0.4-0.7-1-1.3-1.7-1.7c-0.7-0.4-1.5-0.6-2.3-0.6c-0.8,0-1.6,0.2-2.3,0.6s-1.3,1-1.7,1.7
			C208.5,31.7,208.3,32.5,208.3,33.3z M213.4,30.4c0.6,0,1,0.2,1.3,0.5c0.3,0.3,0.5,0.7,0.5,1.2c0,0.5-0.2,0.9-0.5,1.2
			c-0.3,0.3-0.7,0.5-1.2,0.5v0c0.2,0.1,0.4,0.2,0.6,0.4c0.2,0.2,0.4,0.5,0.7,1.1l0.7,1.2h-1.4l-0.3-0.5c-0.2-0.5-0.5-0.9-0.7-1.2
			c-0.2-0.3-0.4-0.5-0.6-0.6s-0.4-0.2-0.7-0.2h-0.5v2.5h-1.1v-6H213.4z M213,33c0.4,0,0.6-0.1,0.8-0.2c0.2-0.2,0.3-0.4,0.3-0.6
			c0-0.3-0.1-0.5-0.3-0.6c-0.2-0.1-0.5-0.2-0.8-0.2h-1.4V33H213z"/>
	</g>
</g>
<path class="st2" d="M363.1,75.3V31.9H390v7.8h-17.7v8.9H390v7.9h-17.7v10.9H390v7.9H363.1z"/>
<path class="st2" d="M322.6,75.3V31.9h11.8c4.7,0,8.3,0.3,11,1c2.7,0.7,5,1.7,7.1,3.3c2.6,2,4.6,4.4,6,7.4c1.4,3,2,6.4,2,10.1
	c0,3.9-0.7,7.3-2.1,10.2c-1.4,3-3.4,5.4-6.1,7.4c-2,1.4-4.2,2.4-6.6,3.1c-2.4,0.6-6,0.9-10.6,0.9h-3.3H322.6z M331.9,67.5h5.2
	c4.9,0,8.4-1.1,10.6-3.3c2.2-2.2,3.3-5.7,3.3-10.5c0-4.8-1.1-8.3-3.3-10.5c-2.2-2.2-5.8-3.3-10.6-3.3h-5.2V67.5z"/>
<g>
	<path class="st2" d="M267.5,63.6c-2.5,2.6-5.6,4-9.4,4c-3.9,0-7-1.3-9.5-3.9c-2.4-2.6-3.7-6-3.7-10c0-4,1.2-7.3,3.7-10
		c2.5-2.7,5.6-4,9.4-4c3.7,0,6.8,1.3,9.3,4c0.1,0.1,0.2,0.2,0.3,0.3l6-6c-2.1-2-4.4-3.5-7.1-4.6c-2.7-1.1-5.6-1.7-8.5-1.7
		c-2.9,0-5.8,0.6-8.5,1.7c-2.8,1.1-5.2,2.7-7.3,4.7c-2.1,2.1-3.7,4.4-4.8,7c-1.1,2.6-1.7,5.4-1.7,8.4c0,3.3,0.7,6.5,2.1,9.4
		c1.4,2.9,3.4,5.4,6,7.5c2,1.6,4.3,2.9,6.7,3.7c2.4,0.9,4.9,1.3,7.5,1.3c2.9,0,5.7-0.6,8.4-1.7c2.6-1.1,5-2.6,7.1-4.6l-6-6
		C267.7,63.4,267.6,63.5,267.5,63.6z"/>
</g>
</svg>
